<svg xmlns="http://www.w3.org/2000/svg" width="22.424" height="32" viewBox="0 0 22.424 32">
  <g id="Group_20" data-name="Group 20" transform="translate(-585.576 -1823)">
    <path id="Path_299" data-name="Path 299" d="M453,291.5a.5.5,0,0,0-.5-.5h-18a.5.5,0,0,0,0,1h18A.5.5,0,0,0,453,291.5Z" transform="translate(154 1563)" fill="#303034"/>
    <path id="Path_300" data-name="Path 300" d="M432.274,269.354a1.751,1.751,0,0,0-.451,2.326,5.109,5.109,0,0,0,2.647,2.539,1.961,1.961,0,0,0,1.605-.2c1.1-.658,2.4-1.548,2.947-1.93a3.524,3.524,0,0,0,2.46.2l.012,0c-.052,1.651-.611,2.682-3.344,5.22a11.257,11.257,0,0,0-3.867,7.946,5.837,5.837,0,0,0,1.88,4.419.5.5,0,0,0,.336.13h14a.5.5,0,0,0,0-1H436.7a4.889,4.889,0,0,1-1.415-3.555,10.4,10.4,0,0,1,3.547-7.208c2.915-2.706,3.669-3.988,3.669-6.237a.487.487,0,0,0-.023-.115,3.788,3.788,0,0,0,1.343-1.157c.4-.59,1.277-2.105.63-3.446a.5.5,0,1,0-.9.436,2.614,2.614,0,0,1-.554,2.445,3.093,3.093,0,0,1-1.761,1.157,2.41,2.41,0,0,1-1.952-.232.5.5,0,0,0-.571,0c-.018.012-1.777,1.251-3.149,2.074a.967.967,0,0,1-.812.094,4.184,4.184,0,0,1-2.032-2.026c-.329-.658.008-.972.161-1.084a25.17,25.17,0,0,0,5.248-6.2.5.5,0,0,0,.037-.4,19.578,19.578,0,0,1-.54-2.033,9.684,9.684,0,0,0,4.718,1.51c2.6,0,8.658.972,8.658,9.976a33.633,33.633,0,0,1-1.97,10.327.5.5,0,0,0,.3.641.49.49,0,0,0,.171.03.5.5,0,0,0,.47-.329A34.055,34.055,0,0,0,452,273c0-10.183-7.393-10.974-9.658-10.974a9.8,9.8,0,0,1-5.036-1.923.505.505,0,0,0-.526-.052.5.5,0,0,0-.279.448,13.286,13.286,0,0,0,.646,3.147A25.013,25.013,0,0,1,432.274,269.354Z" transform="translate(154 1563)" fill="#303034"/>
    <path id="Path_301" data-name="Path 301" d="M448.485,261.54A10.03,10.03,0,0,0,442.5,260a.5.5,0,0,0,0,1,9.111,9.111,0,0,1,5.427,1.369C450.241,263.931,453,267.043,453,273a26.739,26.739,0,0,1-.985,7.379.5.5,0,0,0,.364.606.507.507,0,0,0,.121.015.5.5,0,0,0,.485-.379A27.615,27.615,0,0,0,454,273C454,266.6,451,263.237,448.485,261.54Z" transform="translate(154 1563)" fill="#303034"/>
  </g>
</svg>
