<svg xmlns="http://www.w3.org/2000/svg" width="62" height="62" viewBox="0 0 62 62">
  <path id="Union_11" data-name="Union 11" d="M2935,213a1,1,0,1,1,1,1A1,1,0,0,1,2935,213Zm-6,0a1,1,0,1,1,1,1A1,1,0,0,1,2929,213Zm-48,0a1,1,0,1,1,1,1A1,1,0,0,1,2881,213Zm-6,0a1,1,0,1,1,1,1A1,1,0,0,1,2875,213Zm60-6a1,1,0,1,1,1,1A1,1,0,0,1,2935,207Zm-60,0a1,1,0,1,1,1,1A1,1,0,0,1,2875,207Zm60-48a1,1,0,1,1,1,1A1,1,0,0,1,2935,159Zm-60,0a1,1,0,1,1,1,1A1,1,0,0,1,2875,159Zm60-6a1,1,0,1,1,1,1A1,1,0,0,1,2935,153Zm-6,0a1,1,0,1,1,1,1A1,1,0,0,1,2929,153Zm-48,0a1,1,0,1,1,1,1A1,1,0,0,1,2881,153Zm-6,0a1,1,0,1,1,1,1A1,1,0,0,1,2875,153Z" transform="translate(-2875 -152)" fill="#b09a68"/>
</svg>
