<svg xmlns="http://www.w3.org/2000/svg" width="28" height="32" viewBox="0 0 28 32">
  <g id="Group_21" data-name="Group 21" transform="translate(-523 -1875)">
    <path id="Path_253" data-name="Path 253" d="M397,321.4c0-6.326-4.579-9.4-14-9.4s-14,3.075-14,9.4c0,7.275,13.173,15.668,13.733,16.021h.005a.367.367,0,0,0,.035.013.44.44,0,0,0,.454,0c.011-.006.024-.006.035-.013h.005C383.827,337.069,397,328.677,397,321.4Zm-10,0c0,5.56-2.876,12.121-4,14.473-1.124-2.351-4-8.909-4-14.473,0-7.53,2.283-8.4,4-8.4S387,313.871,387,321.4Zm-9,0c0,4.8,1.979,10.141,3.331,13.236-2.742-2.9-7.331-8.456-7.331-13.236,0-4.69,1.918-7.327,5.977-8.132C378.653,314.717,378,317.411,378,321.4Zm10,0c0-3.99-.652-6.684-1.977-8.132,4.06.8,5.977,3.442,5.977,8.132,0,4.78-4.589,10.338-7.331,13.236C386.021,331.543,388,326.2,388,321.4Zm-18,0c0-3.971,1.987-6.47,6.156-7.632C374.042,315.3,373,317.833,373,321.4c0,4.2,3.135,8.792,5.838,11.973C374.98,330.306,370,325.544,370,321.4Zm17.162,11.973c2.7-3.181,5.838-7.77,5.838-11.973,0-3.568-1.042-6.1-3.156-7.632,4.169,1.162,6.156,3.661,6.156,7.632C396,325.544,391.02,330.306,387.162,333.374Z" transform="translate(154 1563)" fill="#303034"/>
    <path id="Path_254" data-name="Path 254" d="M380.5,339a.5.5,0,0,0-.5.5v3a1.484,1.484,0,0,0,1.5,1.5h3a1.484,1.484,0,0,0,1.5-1.5v-3a.5.5,0,0,0-.5-.5Zm4.5,3.5a.479.479,0,0,1-.5.5h-3a.479.479,0,0,1-.5-.5V340h4Z" transform="translate(154 1563)" fill="#303034"/>
  </g>
</svg>
