<svg xmlns="http://www.w3.org/2000/svg" width="32.151" height="32" viewBox="0 0 32.151 32">
  <g id="Group_19" data-name="Group 19" transform="translate(-27 -1823.018)">
    <path id="Path_298" data-name="Path 298" d="M-127,291.517a.5.5,0,0,0,.5.5h31.149a.49.49,0,0,0,.193-.039A.514.514,0,0,0-95,291.87l0,0s0-.009.007-.012a.5.5,0,0,0,.107-.2.527.527,0,0,0,.014-.069.45.45,0,0,0,.015-.073.465.465,0,0,0-.023-.112c0-.014,0-.028,0-.042l-3.164-9.727a.489.489,0,0,0-.122-.2L-115.3,264.3a.5.5,0,0,0-.055-.083l-3.744-3.744a1.562,1.562,0,0,0-2.206,0l-5.241,5.241a1.549,1.549,0,0,0-.457,1.1,1.551,1.551,0,0,0,.457,1.1l3.66,3.66a.483.483,0,0,0,.054.082l17.111,17.226a.491.491,0,0,0,.212.127l6.721,2H-126.5A.5.5,0,0,0-127,291.517Zm6.37-21.344,15.706,15.5-.578,2-16.264-16.374Zm16.474,14.857-15.767-15.564,2.44-2.44,15.626,15.667v2.337Zm2.923-3.129-15.542-15.583,1.04-1.04L-99.5,281.509Zm-2.75,4.13h2.627a.5.5,0,0,0,.5-.5v-2.688l2.009-.457,2.726,8.38-8.5-2.532ZM-126,266.816a.558.558,0,0,1,.163-.395l5.241-5.241a.559.559,0,0,1,.79,0l3.376,3.376-6.03,6.03-3.375-3.376A.548.548,0,0,1-126,266.816Z" transform="translate(154 1563)" fill="#303034"/>
  </g>
</svg>
