<svg xmlns="http://www.w3.org/2000/svg" width="22" height="31.999" viewBox="0 0 22 31.999">
  <g id="Group_22" data-name="Group 22" transform="translate(-532 -1771)">
    <path id="Path_339" data-name="Path 339" d="M389,208a11.025,11.025,0,0,0-11,11,10.438,10.438,0,0,0,3.9,8.312.479.479,0,0,0,.092.088c1.9,2.062,2,2.454,2.01,3.361.006.359,0,.465,0,.523l0,.209a1.276,1.276,0,0,0,.9,1.495l8.094,1.781a.5.5,0,0,0,.214-.977l-8.055-1.771c-.155-.047-.168-.051-.154-.5l0-.191s.01-.078,0-.586c-.019-1.269-.3-1.882-2.309-4.059a.5.5,0,0,0-.138-.118A9.564,9.564,0,0,1,379,219a10.022,10.022,0,0,1,10-10,9.9,9.9,0,0,1,10,10,9.4,9.4,0,0,1-3.518,7.551.485.485,0,0,0-.147.109c-2.037,2.2-2.313,2.817-2.332,4.086,0,.03,0,.065,0,.1v.035c0,.076-.014.118-.013.134l-.117-.018-4.2-.987a.5.5,0,0,0-.229.974l4.144.972a1.132,1.132,0,0,0,.973-.113,1.1,1.1,0,0,0,.434-.866l0-.047c0-.032,0-.065,0-.1a.216.216,0,0,0,0-.026v-.046c.013-.9.107-1.294,2.005-3.356a.288.288,0,0,0,.027-.022A10.408,10.408,0,0,0,400,219,10.894,10.894,0,0,0,389,208Z" transform="translate(154 1563)" fill="#303034"/>
    <path id="Path_340" data-name="Path 340" d="M393,237.5a.5.5,0,0,0,.11-.988l-8-1.814a.5.5,0,1,0-.221.975l8,1.814A.479.479,0,0,0,393,237.5Z" transform="translate(154 1563)" fill="#303034"/>
    <path id="Path_341" data-name="Path 341" d="M385.609,237.554a.5.5,0,1,0-.219.975l6.5,1.458A.513.513,0,0,0,392,240a.5.5,0,0,0,.109-.988Z" transform="translate(154 1563)" fill="#303034"/>
  </g>
</svg>
