<svg id="desktop" xmlns="http://www.w3.org/2000/svg" width="39" height="32" viewBox="0 0 39 32">
  <path id="Path_1240" data-name="Path 1240" d="M1.5,25H19v1.5a.5.5,0,0,0,1,0V25H37.5A1.5,1.5,0,0,0,39,23.5V1.5A1.5,1.5,0,0,0,37.5,0H1.5A1.5,1.5,0,0,0,0,1.5v22A1.5,1.5,0,0,0,1.5,25ZM1,1.5A.5.5,0,0,1,1.5,1h36a.5.5,0,0,1,.5.5v22a.5.5,0,0,1-.5.5H1.5a.5.5,0,0,1-.5-.5Z" fill="#303034"/>
  <path id="Path_1241" data-name="Path 1241" d="M3.5,22h32a.5.5,0,0,0,.5-.5V3.5a.5.5,0,0,0-.5-.5H3.5a.5.5,0,0,0-.5.5v18A.5.5,0,0,0,3.5,22ZM4,4H35V21H4Z" fill="#303034"/>
  <path id="Path_1242" data-name="Path 1242" d="M14,28a1.956,1.956,0,0,0-2,2v1.5a.5.5,0,0,0,.5.5h14a.5.5,0,0,0,.5-.5V30.075A2.017,2.017,0,0,0,25,28Zm12,2.075V31H13V30a.957.957,0,0,1,1-1H25A1.017,1.017,0,0,1,26,30.075Z" fill="#303034"/>
</svg>
